<?xml version="1.0" encoding="UTF-8"?>
<svg id="Layer_2" data-name="Layer 2" xmlns="http://www.w3.org/2000/svg" viewBox="0 0 370.12 294.82">
  <defs>
    <style>
      .cls-1 {
        fill: #fff;
      }

      .cls-2 {
        fill: #662d91;
      }

      .cls-3 {
        fill: #422566;
      }

      .cls-3, .cls-4 {
        stroke: #fff;
        stroke-miterlimit: 10;
        stroke-width: 5px;
      }

      .cls-4 {
        fill: #6237a0;
      }

      .cls-5 {
        fill: #9754cb;
      }
    </style>
  </defs>
  <g id="Layer_4" data-name="Layer 4">
    <g>
      <g>
        <path class="cls-1" d="M332.27,178.53c9.25,5.95,9.3,15.76,.11,21.81l-126.66,83.32c-9.19,6.05-24.25,6.08-33.47,.08L44.09,200.26c-9.22-6-9.17-15.75,.11-21.65l127.94-81.44c9.28-5.91,24.44-5.87,33.69,.08l126.43,81.29Z"/>
        <path class="cls-4" d="M344.06,201.37c-.02-3.9-2.57-7.79-7.65-10.72L208.34,116.69c-10.17-5.87-26.83-5.91-37.03-.08L41.68,190.73c-5.52,3.16-8.07,7.43-7.62,11.63V92.59c-.45-4.19,2.09-8.47,7.62-11.63L171.31,6.85c10.2-5.83,26.86-5.79,37.03,.08l128.06,73.96c5.08,2.93,7.63,6.82,7.65,10.72v109.76Z"/>
        <path class="cls-4" d="M34.06,202.22c.38,3.54,2.88,7.02,7.51,9.73l129.85,75.95c10.14,5.93,26.71,5.89,36.82-.08l128.28-75.79c5.05-2.98,7.56-6.9,7.54-10.8V91.46c.02,3.9-2.49,7.81-7.54,10.8l-128.28,75.79c-10.11,5.97-26.68,6.01-36.82,.08L41.57,102.18c-4.63-2.71-7.14-6.19-7.51-9.73v109.76"/>
      </g>
      <path class="cls-1" d="M52.29,128.03c-4.74-2.78-8.71-.56-8.82,4.94l-1.02,52.9c-.11,5.5,3.67,12.3,8.4,15.12l111.31,66.39c4.72,2.82,8.68,.62,8.78-4.88l1.04-54.13c.11-5.5-3.69-12.28-8.43-15.06L52.29,128.03Z"/>
      <path class="cls-2" d="M82.7,198.65c3.33-3.27,6.16-11.42,6.29-18.09s-2.38-14.92-5.58-18.32-8.54-3.5-11.87-.23-6.16,11.42-6.29,18.09c-.13,6.68,2.38,14.92,5.58,18.32s8.54,3.5,11.87,.23Z"/>
      <path class="cls-2" d="M136.71,229.68c3.33-3.27,6.16-11.42,6.29-18.09,.13-6.68-2.38-14.92-5.58-18.32s-8.54-3.5-11.87-.23c-3.33,3.27-6.16,11.42-6.29,18.09-.13,6.68,2.38,14.92,5.58,18.32s8.54,3.5,11.87,.23Z"/>
      <path class="cls-3" d="M32.88,90.25L3.43,131.16c-1.68,2.34-1,5.78,1.42,7.17l154.45,89.1c2,1.15,4.47,.46,5.7-1.6l24.54-41.23c1.39-2.33,.65-5.46-1.6-6.8L38.4,89.03c-1.87-1.11-4.2-.6-5.51,1.22Z"/>
      <path class="cls-3" d="M190.59,183.81l19.21,44.86c1.1,2.56,4.26,3.57,6.6,2.11l149.2-93.46c1.93-1.21,2.58-3.69,1.48-5.73l-21.9-40.71c-1.24-2.3-4.18-3.12-6.38-1.77l-146.51,89.32c-1.84,1.12-2.55,3.4-1.7,5.39Z"/>
      <path class="cls-5" d="M135.5,59c-4.75-2.77-12.55-2.8-17.32-.06l-34.42,19.71c-4.77,2.73-4.83,7.3-.12,10.14l34.66,20.94c4.71,2.84,12.45,2.91,17.2,.14l35.03-20.4c4.75-2.77,4.75-7.3,0-10.06l-35.03-20.4Z"/>
      <path class="cls-5" d="M194.07,98.21c-4.75-2.77-12.55-2.8-17.32-.06l-34.42,19.71c-4.77,2.73-4.83,7.3-.12,10.14l34.66,20.94c4.71,2.84,12.45,2.91,17.2,.14l35.03-20.4c4.75-2.77,4.75-7.3,0-10.06l-35.03-20.4Z"/>
      <path class="cls-5" d="M198.6,23.81c-4.75-2.77-12.55-2.8-17.32-.06l-34.42,19.71c-4.77,2.73-4.83,7.3-.12,10.14l34.66,20.94c4.71,2.84,12.45,2.91,17.2,.14l35.03-20.4c4.75-2.77,4.75-7.3,0-10.06l-35.03-20.4Z"/>
      <path class="cls-5" d="M257.17,63.01c-4.75-2.77-12.55-2.8-17.32-.06l-34.42,19.71c-4.77,2.73-4.83,7.3-.12,10.14l34.66,20.94c4.71,2.84,12.45,2.91,17.2,.14l35.03-20.4c4.75-2.77,4.75-7.3,0-10.06l-35.03-20.4Z"/>
    </g>
  </g>
</svg>