<?xml version="1.0" encoding="UTF-8"?>
<svg id="Layer_2" data-name="Layer 2" xmlns="http://www.w3.org/2000/svg" xmlns:xlink="http://www.w3.org/1999/xlink" viewBox="0 0 365.12 289.82">
  <defs>
    <style>
      .cls-1 {
        fill: url(#linear-gradient-2);
      }

      .cls-2 {
        fill: #fff;
      }

      .cls-3 {
        fill: #422566;
      }

      .cls-4 {
        fill: url(#linear-gradient-6);
      }

      .cls-5 {
        fill: #662d91;
      }

      .cls-6 {
        fill: url(#linear-gradient-5);
      }

      .cls-7 {
        fill: url(#linear-gradient-7);
      }

      .cls-8 {
        fill: url(#linear-gradient-3);
      }

      .cls-9 {
        fill: url(#linear-gradient);
      }

      .cls-10 {
        fill: url(#linear-gradient-4);
      }
    </style>
    <linearGradient id="linear-gradient" x1="34.71" y1="187.99" x2="336.74" y2="187.99" gradientUnits="userSpaceOnUse">
      <stop offset="0" stop-color="#6237a0"/>
      <stop offset="1" stop-color="#deacf5"/>
    </linearGradient>
    <linearGradient id="linear-gradient-2" x1="31.53" y1="189.39" x2="341.56" y2="189.39" gradientUnits="userSpaceOnUse">
      <stop offset="0" stop-color="#9754cb"/>
      <stop offset="1" stop-color="#000"/>
    </linearGradient>
    <linearGradient id="linear-gradient-3" x1="31.51" y1="99.93" x2="341.56" y2="99.93" xlink:href="#linear-gradient-2"/>
    <linearGradient id="linear-gradient-4" x1="77.65" y1="81.9" x2="171.6" y2="81.9" gradientUnits="userSpaceOnUse">
      <stop offset="0" stop-color="#28104e"/>
      <stop offset="1" stop-color="#9754cb"/>
    </linearGradient>
    <linearGradient id="linear-gradient-5" x1="136.22" y1="121.11" x2="230.17" y2="121.11" xlink:href="#linear-gradient-4"/>
    <linearGradient id="linear-gradient-6" x1="140.75" y1="46.71" x2="234.7" y2="46.71" xlink:href="#linear-gradient-4"/>
    <linearGradient id="linear-gradient-7" x1="199.32" y1="85.92" x2="293.27" y2="85.92" xlink:href="#linear-gradient-4"/>
  </defs>
  <g id="Layer_4" data-name="Layer 4">
    <g>
      <g>
        <path class="cls-9" d="M329.77,176.03c9.25,5.95,9.3,15.76,.11,21.81l-126.66,83.32c-9.19,6.05-24.25,6.08-33.47,.08L41.59,197.76c-9.22-6-9.17-15.75,.11-21.65l127.94-81.44c9.28-5.91,24.44-5.87,33.69,.08l126.43,81.29Z"/>
        <path class="cls-1" d="M31.56,199.72c.38,3.54,2.88,7.02,7.51,9.73l129.85,75.95c10.14,5.93,26.71,5.89,36.82-.08l128.28-75.79c5.05-2.98,7.56-6.9,7.54-10.8V88.96c.02,3.9-2.49,7.81-7.54,10.8l-128.28,75.79c-10.11,5.97-26.68,6.01-36.82,.08L39.07,99.68c-4.63-2.71-7.14-6.19-7.51-9.73l-.03,107.06"/>
        <path class="cls-8" d="M341.56,198.87c-.02-3.9-2.57-7.79-7.65-10.72L205.84,114.19c-10.17-5.87-26.83-5.91-37.03-.08L39.18,188.23c-5.52,3.16-8.07,7.43-7.62,11.63V90.09c-.45-4.19,2.09-8.47,7.62-11.63L168.81,4.35c10.2-5.83,26.86-5.79,37.03,.08l128.06,73.96c5.08,2.93,7.63,6.82,7.65,10.72v109.76Z"/>
      </g>
      <path class="cls-2" d="M49.79,125.53c-4.74-2.78-8.71-.56-8.82,4.94l-1.02,52.9c-.11,5.5,3.67,12.3,8.4,15.12l111.31,66.39c4.72,2.82,8.68,.62,8.78-4.88l1.04-54.13c.11-5.5-3.69-12.28-8.43-15.06L49.79,125.53Z"/>
      <path class="cls-5" d="M80.2,196.15c3.33-3.27,6.16-11.42,6.29-18.09s-2.38-14.92-5.58-18.32-8.54-3.5-11.87-.23-6.16,11.42-6.29,18.09,2.38,14.92,5.58,18.32,8.54,3.5,11.87,.23Z"/>
      <path class="cls-5" d="M134.21,227.18c3.33-3.27,6.16-11.42,6.29-18.09s-2.38-14.92-5.58-18.32-8.54-3.5-11.87-.23-6.16,11.42-6.29,18.09,2.38,14.92,5.58,18.32,8.54,3.5,11.87,.23Z"/>
      <path class="cls-3" d="M30.38,87.75L.93,128.66c-1.68,2.34-1,5.78,1.42,7.17l154.45,89.1c2,1.15,4.47,.46,5.7-1.6l24.54-41.23c1.39-2.33,.65-5.46-1.6-6.8L35.9,86.53c-1.87-1.11-4.2-.6-5.51,1.22Z"/>
      <path class="cls-3" d="M188.09,181.31l19.21,44.86c1.1,2.56,4.26,3.57,6.6,2.11l149.2-93.46c1.93-1.21,2.58-3.69,1.48-5.73l-21.9-40.71c-1.24-2.3-4.18-3.12-6.38-1.77l-146.51,89.32c-1.84,1.12-2.55,3.4-1.7,5.39Z"/>
      <path class="cls-10" d="M133,56.5c-4.75-2.77-12.55-2.8-17.32-.06l-34.42,19.71c-4.77,2.73-4.83,7.3-.12,10.14l34.66,20.94c4.71,2.84,12.45,2.91,17.2,.14l35.03-20.4c4.75-2.77,4.75-7.3,0-10.06l-35.03-20.4Z"/>
      <path class="cls-6" d="M191.57,95.71c-4.75-2.77-12.55-2.8-17.32-.06l-34.42,19.71c-4.77,2.73-4.83,7.3-.12,10.14l34.66,20.94c4.71,2.84,12.45,2.91,17.2,.14l35.03-20.4c4.75-2.77,4.75-7.3,0-10.06l-35.03-20.4Z"/>
      <path class="cls-4" d="M196.1,21.31c-4.75-2.77-12.55-2.8-17.32-.06l-34.42,19.71c-4.77,2.73-4.83,7.3-.12,10.14l34.66,20.94c4.71,2.84,12.45,2.91,17.2,.14l35.03-20.4c4.75-2.77,4.75-7.3,0-10.06l-35.03-20.4Z"/>
      <path class="cls-7" d="M254.67,60.51c-4.75-2.77-12.55-2.8-17.32-.06l-34.42,19.71c-4.77,2.73-4.83,7.3-.12,10.14l34.66,20.94c4.71,2.84,12.45,2.91,17.2,.14l35.03-20.4c4.75-2.77,4.75-7.3,0-10.06l-35.03-20.4Z"/>
    </g>
  </g>
</svg>